HIERARCHY
ROOT Hips
{
	OFFSET 0.00000 0.00000 0.00000
	CHANNELS 6 Xposition Yposition Zposition Zrotation Yrotation Xrotation 
	JOINT LHipJoint
	{
		OFFSET 0 0 0
		CHANNELS 3 Zrotation Yrotation Xrotation
		JOINT LeftUpLeg
		{
			OFFSET 1.81424 -1.42316 1.18090
			CHANNELS 3 Zrotation Yrotation Xrotation
			JOINT LeftLeg
			{
				OFFSET 2.15837 -5.93008 0.00000
				CHANNELS 3 Zrotation Yrotation Xrotation
				JOINT LeftFoot
				{
					OFFSET 2.51759 -6.91701 0.00000
					CHANNELS 3 Zrotation Yrotation Xrotation
					JOINT LeftToeBase
					{
						OFFSET 0.18318 -0.50327 1.95113
						CHANNELS 3 Zrotation Yrotation Xrotation
						End Site
						{
							OFFSET 0.00000 -0.00000 1.01524
						}
					}
				}
			}
		}
	}
	JOINT RHipJoint
	{
		OFFSET 0 0 0
		CHANNELS 3 Zrotation Yrotation Xrotation
		JOINT RightUpLeg
		{
			OFFSET -1.43917 -1.42316 1.18090
			CHANNELS 3 Zrotation Yrotation Xrotation
			JOINT RightLeg
			{
				OFFSET -2.25237 -6.18833 0.00000
				CHANNELS 3 Zrotation Yrotation Xrotation
				JOINT RightFoot
				{
					OFFSET -2.46496 -6.77243 0.00000
					CHANNELS 3 Zrotation Yrotation Xrotation
					JOINT RightToeBase
					{
						OFFSET -0.26285 -0.72219 1.76148
						CHANNELS 3 Zrotation Yrotation Xrotation
						End Site
						{
							OFFSET -0.00000 -0.00000 0.95109
						}
					}
				}
			}
		}
	}
	JOINT LowerBack
	{
		OFFSET 0 0 0
		CHANNELS 3 Zrotation Yrotation Xrotation
		JOINT Spine
		{
			OFFSET -0.08725 1.93754 -0.28890
			CHANNELS 3 Zrotation Yrotation Xrotation
			JOINT Spine1
			{
				OFFSET 0.01195 1.94849 0.05967
				CHANNELS 3 Zrotation Yrotation Xrotation
				JOINT Neck
				{
					OFFSET 0 0 0
					CHANNELS 3 Zrotation Yrotation Xrotation
					JOINT Neck1
					{
						OFFSET 0.02762 1.60124 0.34160
						CHANNELS 3 Zrotation Yrotation Xrotation
						JOINT Head
						{
							OFFSET -0.04785 1.66713 -0.24070
							CHANNELS 3 Zrotation Yrotation Xrotation
							End Site
							{
								OFFSET -0.02188 1.68591 -0.11959
							}
						}
					}
				}
				JOINT LeftShoulder
				{
					OFFSET 0 0 0
					CHANNELS 3 Zrotation Yrotation Xrotation
					JOINT LeftArm
					{
						OFFSET 2.59610 1.78696 -0.28854
						CHANNELS 3 Zrotation Yrotation Xrotation
						JOINT LeftForeArm
						{
							OFFSET 5.17853 -0.00000 0.00000
							CHANNELS 3 Zrotation Yrotation Xrotation
							JOINT LeftHand
							{
								OFFSET 3.40399 -0.00000 -0.00000
								CHANNELS 3 Zrotation Yrotation Xrotation
								JOINT LeftFingerBase
								{
									OFFSET 0 0 0
									CHANNELS 3 Zrotation Yrotation Xrotation
									JOINT LeftHandIndex1
									{
										OFFSET 0.70896 -0.00000 -0.00000
										CHANNELS 3 Zrotation Yrotation Xrotation
										End Site
										{
											OFFSET 0.57159 -0.00000 -0.00000
										}
									}
								}
								JOINT LThumb
								{
									OFFSET 0 0 0
									CHANNELS 3 Zrotation Yrotation Xrotation
									End Site
									{
										OFFSET 0.58031 -0.00000 0.58031
									}
								}
							}
						}
					}
				}
				JOINT RightShoulder
				{
					OFFSET 0 0 0
					CHANNELS 3 Zrotation Yrotation Xrotation
					JOINT RightArm
					{
						OFFSET -2.87749 1.55486 -0.73085
						CHANNELS 3 Zrotation Yrotation Xrotation
						JOINT RightForeArm
						{
							OFFSET -5.42351 -0.00000 -0.00000
							CHANNELS 3 Zrotation Yrotation Xrotation
							JOINT RightHand
							{
								OFFSET -3.42066 -0.00000 -0.00000
								CHANNELS 3 Zrotation Yrotation Xrotation
								JOINT RightFingerBase
								{
									OFFSET 0 0 0
									CHANNELS 3 Zrotation Yrotation Xrotation
									JOINT RightHandIndex1
									{
										OFFSET -0.74361 -0.00000 -0.00000
										CHANNELS 3 Zrotation Yrotation Xrotation
										End Site
										{
											OFFSET -0.59952 -0.00000 -0.00000
										}
									}
								}
								JOINT RThumb
								{
									OFFSET 0 0 0
									CHANNELS 3 Zrotation Yrotation Xrotation
									End Site
									{
										OFFSET -0.60867 -0.00000 0.60867
									}
								}
							}
						}
					}
				}
			}
		}
	}
}
MOTION
Frames: 13
Frame Time: .0083333
-2.235 2.4249 -5.1992 0 0 0 0 0 0 -21 0 0 0 0 0 0 0 0 0 0 0 0 0 0 21 0 0 0 0 0 0 0 0 0 0 0 0 0 0 0 0 0 0 0 0 0 0 -16 0 0 21 0 0 11 0 0 0 -8 0 0 0 0 0 0 0 0 0 0 0 0 0 0 0 0 0 0 0 0 8 0 0 0 0 0 0 0 0 0 0 0 0 0 0 0 0 0
-2.2350 2.4249 -5.1992 87.1244 12.1077 -26.1768 0.0000 0.0000 0.0000 -27.6604 11.6626 -20.6330 16.0407 19.6199 78.3530 0.5675 -0.0662 14.2591 1.4591 -7.6345 -21.6093 0.0000 0.0000 0.0000 -4.3540 24.7655 -50.9040 -4.6713 -13.0038 39.3827 1.2187 -19.2110 -9.5938 -0.0603 1.5839 -4.3571 -9.0374 -0.8513 18.3755 -2.5590 -3.1187 3.3651 3.0873 -1.3850 -6.3096 8.1517 0.7287 -18.6709 14.5678 -5.6848 23.2455 3.1251 -0.0224 11.1163 0.0000 -0.0000 0.0000 -137.8579 -47.0658 117.5919 40.0629 -48.1071 -18.4860 -0.0000 0.0000 -26.7358 54.1571 -39.3978 -41.3040 -7.1250 0.0000 -0.0000 9.1043 -23.9833 -12.1282 0.0000 -0.0000 0.0000 -55.3981 64.3879 -82.8848 -15.8938 25.3764 -3.6003 0.0000 -0.0000 -66.0929 -24.7343 17.2855 -7.7943 7.1250 -0.0000 -0.0000 2.0993 -11.0772 1.6580
-2.2466 2.4299 -5.1944 86.6850 11.7667 -26.2156 0.0000 0.0000 0.0000 -27.0933 11.7477 -20.6470 16.0393 19.6197 78.3488 0.5646 0.0925 14.1668 1.2914 -7.2003 -20.3103 0.0000 0.0000 0.0000 -3.6457 24.7834 -50.7486 -4.6205 -12.9433 39.1565 1.2354 -19.3017 -9.2895 -0.0490 1.4280 -3.9272 -8.9650 -0.7580 18.0482 -2.0622 -2.8908 3.4993 3.5156 -1.2888 -5.9876 7.5379 0.7348 -19.2713 14.8897 -5.7616 23.7290 3.3643 -0.0087 11.4479 -0.0000 0.0000 0.0000 -138.5802 -47.0755 117.9848 40.1739 -48.1726 -18.5688 -0.0000 0.0000 -26.8472 54.3036 -39.3938 -41.4549 -7.1250 0.0000 -0.0000 9.1752 -24.0667 -12.2309 -0.0000 0.0000 0.0000 -46.5259 61.4351 -67.6693 -18.9727 29.3847 -5.0174 0.0000 -0.0000 -73.8220 -25.7623 16.5708 -7.8369 7.1250 -0.0000 -0.0000 1.3569 -11.7002 1.0539
-2.2465 2.4319 -5.1894 86.8532 11.6219 -26.2331 0.0000 0.0000 0.0000 -27.2057 11.9378 -20.6247 16.0390 19.6196 78.3479 0.5596 0.0766 14.1097 1.2742 -7.1543 -20.1732 0.0000 0.0000 0.0000 -3.6598 24.8724 -50.7366 -4.6147 -12.9363 39.1306 1.2371 -19.2938 -9.0357 -0.0299 1.1160 -3.0681 -9.3088 -0.6011 17.9620 -1.9043 -2.7196 3.5829 3.8358 -1.2072 -5.8447 7.2877 0.8009 -19.4590 15.0799 -5.6933 23.8300 3.4959 0.0372 11.5336 -0.0000 -0.0000 0.0000 -139.0157 -47.0830 118.3137 40.1898 -48.1819 -18.5806 -0.0000 0.0000 -26.9732 54.3652 -39.4031 -41.5250 -7.1250 0.0000 -0.0000 9.2003 -24.1128 -12.2687 -0.0000 -0.0000 0.0000 -42.8471 59.6900 -61.5046 -20.5366 31.2834 -5.8074 0.0000 -0.0000 -77.0356 -26.1525 16.3907 -7.8888 7.1250 -0.0000 -0.0000 1.0819 -11.8389 0.8370
-2.2434 2.4290 -5.1902 86.9075 11.5888 -26.1386 0.0000 0.0000 0.0000 -27.2518 11.9142 -20.7853 16.0647 19.6246 78.4243 0.5583 -0.1193 14.1628 1.3620 -7.3869 -20.8669 0.0000 0.0000 0.0000 -3.7123 24.8845 -50.8460 -4.5988 -12.9173 39.0596 1.2242 -19.2113 -9.1568 -0.0420 1.3219 -3.6351 -9.4112 -0.5498 17.9270 -1.8855 -2.6675 3.5485 3.9016 -1.1779 -5.8638 7.4179 0.8427 -19.2970 15.0223 -5.6016 23.6565 3.4560 0.0619 11.4246 -0.0000 -0.0000 0.0000 -139.0891 -46.9882 118.4171 40.2054 -48.1911 -18.5922 -0.0000 0.0000 -27.0358 54.3691 -39.4359 -41.5489 -7.1250 0.0000 -0.0000 9.1884 -24.1482 -12.2553 -0.0000 -0.0000 0.0000 -42.5469 59.7811 -61.4190 -20.5675 31.3200 -5.8235 0.0000 -0.0000 -76.7487 -26.1361 16.4118 -7.8929 7.1250 -0.0000 -0.0000 1.0947 -11.8182 0.8474
-2.2434 2.4275 -5.1920 86.7429 11.5322 -26.0892 0.0000 0.0000 0.0000 -27.0800 11.8330 -20.9130 16.0906 19.6296 78.5014 0.5546 -0.2377 14.1588 1.4261 -7.5514 -21.3596 0.0000 0.0000 0.0000 -3.5519 24.8730 -50.9077 -4.5920 -12.9090 39.0288 1.2130 -19.1503 -9.3804 -0.0574 1.5460 -4.2527 -9.2583 -0.5839 17.8812 -1.8376 -2.6763 3.5198 3.8684 -1.1829 -5.8743 7.5742 0.8241 -19.2568 14.8786 -5.6138 23.5832 3.3699 0.0458 11.3798 -0.0000 -0.0000 0.0000 -139.0388 -46.9220 118.3354 40.2266 -48.2036 -18.6080 -0.0000 0.0000 -26.8707 54.4706 -39.4393 -41.6574 -7.1250 0.0000 -0.0000 9.2348 -24.2124 -12.3234 -0.0000 -0.0000 0.0000 -42.4236 59.9311 -61.5135 -20.5721 31.3254 -5.8259 0.0000 -0.0000 -76.4974 -26.1299 16.3560 -7.8650 7.1250 -0.0000 -0.0000 1.0937 -11.8802 0.8452
-2.2488 2.4296 -5.1909 86.5350 11.4269 -26.0970 0.0000 0.0000 0.0000 -26.8661 11.7987 -20.9165 16.0980 19.6310 78.5237 0.5491 -0.1393 14.0531 1.3610 -7.3842 -20.8586 0.0000 0.0000 0.0000 -3.2921 24.8756 -50.8736 -4.5849 -12.9005 38.9970 1.2310 -19.2635 -9.2059 -0.0425 1.3305 -3.6585 -8.8186 -0.7054 17.8998 -1.9439 -2.7688 3.4579 3.5299 -1.2301 -5.9683 8.3592 0.8701 -19.1558 14.0319 -5.5376 23.6115 2.9333 0.0455 11.3152 0.0000 0.0000 0.0000 -138.5702 -46.9438 118.0489 40.2776 -48.2335 -18.6460 -0.0000 0.0000 -26.7940 54.6248 -39.4294 -41.8136 -7.1250 0.0000 -0.0000 9.3116 -24.2952 -12.4345 0.0000 0.0000 0.0000 -46.4699 61.7318 -68.0351 -18.9549 29.3626 -5.0087 0.0000 -0.0000 -73.2465 -25.7077 16.5406 -7.8044 7.1250 -0.0000 -0.0000 1.3904 -11.7411 1.0787
-2.2503 2.4305 -5.1899 86.4859 11.3582 -26.0991 0.0000 0.0000 0.0000 -26.8166 11.7931 -20.9160 16.1056 19.6324 78.5462 0.5447 -0.0524 13.9650 1.2988 -7.2203 -20.3697 0.0000 0.0000 0.0000 -3.1713 24.8542 -50.8731 -4.5791 -12.8936 38.9714 1.2469 -19.3580 -8.9554 -0.0256 1.0324 -2.8380 -8.6626 -0.7492 17.9572 -2.0064 -2.8124 3.4025 3.3881 -1.2487 -6.0658 8.9491 0.9008 -19.2109 13.3258 -5.5211 23.8262 2.5841 0.0397 11.3662 -0.0000 0.0000 0.0000 -138.2730 -46.9165 117.8310 40.3491 -48.2754 -18.6994 -0.0000 0.0000 -26.8116 54.6851 -39.4210 -41.8721 -7.1250 0.0000 -0.0000 9.3436 -24.3230 -12.4802 -0.0000 0.0000 0.0000 -48.8083 62.6076 -71.7817 -18.1240 28.3157 -4.6079 0.0000 -0.0000 -71.4415 -25.4777 16.6381 -7.7691 7.1250 -0.0000 -0.0000 1.5515 -11.6689 1.2061
-2.2466 2.4311 -5.1883 86.5295 11.3214 -26.1008 0.0000 0.0000 0.0000 -26.8767 11.7709 -20.9310 16.1177 19.6347 78.5821 0.5411 -0.0493 13.9172 1.3355 -7.3174 -20.6593 0.0000 0.0000 0.0000 -3.1435 24.8115 -50.9064 -4.5779 -12.8921 38.9657 1.2472 -19.3571 -8.9166 -0.0194 0.8985 -2.4695 -8.6875 -0.7349 18.0331 -2.0083 -2.8099 3.3554 3.4033 -1.2415 -6.1570 8.8790 0.8693 -19.0954 13.4179 -5.5334 23.7255 2.6228 0.0265 11.3100 0.0000 -0.0000 0.0000 -138.1591 -46.8944 117.7352 40.3824 -48.2948 -18.7243 -0.0000 0.0000 -26.8848 54.7069 -39.4486 -41.9117 -7.1250 0.0000 -0.0000 9.3423 -24.3639 -12.4816 0.0000 -0.0000 0.0000 -48.9574 62.6978 -71.9613 -18.0752 28.2533 -4.5848 0.0000 -0.0000 -71.3683 -25.3751 16.7257 -7.7728 7.1250 -0.0000 -0.0000 1.6272 -11.5887 1.2676
-2.2464 2.4333 -5.1860 86.4717 11.2626 -26.1102 0.0000 0.0000 0.0000 -26.8287 11.7371 -20.9380 16.1261 19.6363 78.6070 0.5393 -0.0160 13.8832 1.3415 -7.3332 -20.7063 0.0000 0.0000 0.0000 -3.0437 24.8088 -50.9125 -4.5798 -12.8944 38.9744 1.2511 -19.3852 -8.9188 -0.0202 0.9167 -2.5196 -8.5391 -0.7438 18.0431 -2.0115 -2.7957 3.3355 3.3144 -1.2350 -6.1936 8.7581 0.8290 -19.0358 13.5812 -5.5704 23.6196 2.6932 0.0082 11.2683 0.0000 0.0000 0.0000 -138.0811 -46.8657 117.7102 40.4028 -48.3067 -18.7394 -0.0000 0.0000 -26.8843 54.7673 -39.5002 -42.0066 -7.1250 0.0000 -0.0000 9.3490 -24.4523 -12.4978 0.0000 0.0000 0.0000 -49.0203 62.7501 -72.1056 -18.0297 28.1951 -4.5632 0.0000 -0.0000 -71.2647 -25.2220 16.8891 -7.7922 7.1250 -0.0000 -0.0000 1.7428 -11.4341 1.3634
-2.2481 2.4366 -5.1846 86.4784 11.2105 -26.1499 0.0000 0.0000 0.0000 -26.8409 11.7501 -20.8792 16.1112 19.6335 78.5629 0.5458 0.1146 13.9201 1.2747 -7.1554 -20.1765 0.0000 0.0000 0.0000 -2.9691 24.7926 -50.8672 -4.5798 -12.8944 38.9743 1.2474 -19.3549 -8.8562 -0.0240 0.9999 -2.7484 -8.4852 -0.7574 18.1095 -2.0226 -2.8126 3.3200 3.2787 -1.2415 -6.2478 8.6384 0.8246 -19.0233 13.7596 -5.5867 23.5956 2.7759 0.0092 11.2680 0.0000 0.0000 0.0000 -137.9868 -46.8638 117.5685 40.4328 -48.3243 -18.7619 -0.0000 0.0000 -26.7569 55.0242 -39.4841 -42.2685 -7.1250 0.0000 -0.0000 9.4767 -24.5916 -12.6829 0.0000 0.0000 0.0000 -49.1872 62.8662 -72.3258 -17.9947 28.1503 -4.5467 0.0000 -0.0000 -71.1796 -25.2117 16.9542 -7.8174 7.1250 -0.0000 -0.0000 1.7553 -11.3651 1.3757
-2.2481 2.4412 -5.1819 86.5501 11.1721 -26.2060 0.0000 0.0000 0.0000 -26.9384 11.7499 -20.7712 16.0946 19.6303 78.5134 0.5505 0.2643 13.9305 1.2010 -6.9532 -19.5767 0.0000 0.0000 0.0000 -2.9380 24.7469 -50.8174 -4.5805 -12.8952 38.9776 1.2419 -19.3075 -8.7329 -0.0261 1.0434 -2.8682 -8.5097 -0.7578 18.1862 -2.0404 -2.8279 3.3216 3.2795 -1.2471 -6.2855 8.5794 0.8341 -18.9663 13.8507 -5.5645 23.5435 2.8202 0.0178 11.2412 0.0000 -0.0000 0.0000 -137.9591 -46.9278 117.4865 40.4455 -48.3316 -18.7714 -0.0000 0.0000 -26.7771 55.1631 -39.5498 -42.4555 -7.1250 0.0000 -0.0000 9.5143 -24.7422 -12.7462 0.0000 -0.0000 0.0000 -49.2525 63.0399 -72.5027 -17.9984 28.1551 -4.5485 0.0000 -0.0000 -71.0285 -25.2430 17.0630 -7.8765 7.1250 -0.0000 -0.0000 1.7443 -11.2426 1.3714
-2.2551 2.4526 -5.1730 86.6734 10.9603 -26.3527 0.0000 0.0000 0.0000 -27.0068 12.0261 -20.5370 16.0524 19.6222 78.3879 0.5419 0.1976 13.8426 1.2207 -7.0080 -19.7392 0.0000 0.0000 0.0000 -2.7987 24.8268 -50.6191 -4.5744 -12.8879 38.9502 1.2296 -19.2117 -8.5974 -0.0298 1.1149 -3.0649 -8.4539 -0.6890 18.1758 -2.0852 -2.7232 3.3992 3.1750 -1.2024 -6.2125 8.5028 0.8275 -18.8687 13.9945 -5.5484 23.3926 2.8818 0.0190 11.1715 -0.0000 0.0000 0.0000 -137.9295 -46.9355 117.4459 40.5150 -48.3721 -18.8233 -0.0000 0.0000 -26.8544 55.0631 -39.6680 -42.4205 -7.1250 0.0000 -0.0000 9.4171 -24.7999 -12.6179 -0.0000 0.0000 0.0000 -49.0998 63.2065 -72.6270 -18.0175 28.1796 -4.5575 0.0000 -0.0000 -70.7062 -25.2749 17.1487 -7.9257 7.1250 -0.0000 -0.0000 1.7309 -11.1448 1.3643
